# Blender v2.82 (sub 7) OBJ File: 'rockv2.blend'
# www.blender.org
mtllib rockv2.mtl
o Icosphere
v 0.000000 -1.051045 -0.002559
v 0.863807 -0.548407 0.607454
v -0.309185 -0.512814 0.951589
v -1.072852 -0.553441 -0.011220
v -0.276388 -0.447220 -0.850649
v 0.718509 -0.444248 -0.521129
v 0.315118 0.502302 0.956483
v -0.756235 0.470422 0.543919
v -1.055454 0.659587 -0.685432
v 0.360706 0.577798 -1.044284
v 0.862389 0.430255 0.054384
v 0.000000 1.129983 -0.006718
v -0.168911 -0.883994 0.515662
v 0.453047 -0.930389 0.330859
v 0.295821 -0.591641 0.910427
v 1.028326 -0.641359 -0.016772
v 0.462564 -0.954757 -0.359043
v -0.580787 -1.001210 -0.027319
v -0.810646 -0.613839 0.572073
v -0.170677 -0.894404 -0.521994
v -0.685022 -0.523893 -0.497128
v 0.262869 -0.525738 -0.809012
v 1.179164 0.004591 0.361646
v 0.996480 0.001212 -0.323052
v 0.000000 0.001195 1.202838
v 0.579027 -0.003034 0.794130
v -1.179164 0.004591 0.361646
v -0.579027 -0.003034 0.794130
v -0.611113 -0.002734 -0.839945
v -0.996480 0.001212 -0.323052
v 0.611113 -0.002734 -0.839945
v 0.000000 0.007715 -1.039916
v 0.788673 0.603943 0.570926
v -0.306025 0.583886 0.909131
v -0.854761 0.527790 0.000121
v -0.347833 0.655796 -0.998546
v 1.012595 0.734669 -0.658345
v 0.182034 0.994942 0.566443
v 0.563095 0.911161 -0.003311
v -0.443768 0.892520 0.318458
v -0.448835 0.899026 -0.321761
v 0.180988 0.881512 -0.530313
vt 0.818181 0.000000
vt 0.772726 0.078731
vt 0.863635 0.078731
vt 0.727272 0.157461
vt 0.681818 0.078731
vt 0.636363 0.157461
vt 0.090909 0.000000
vt 0.045454 0.078731
vt 0.136363 0.078731
vt 0.272727 0.000000
vt 0.227273 0.078731
vt 0.318182 0.078731
vt 0.454545 0.000000
vt 0.409090 0.078731
vt 0.500000 0.078731
vt 0.681818 0.236191
vt 0.909090 0.157461
vt 0.818181 0.157461
vt 0.863635 0.236191
vt 0.181818 0.157461
vt 0.090909 0.157461
vt 0.136363 0.236191
vt 0.363636 0.157461
vt 0.272727 0.157461
vt 0.318182 0.236191
vt 0.545454 0.157461
vt 0.454545 0.157461
vt 0.500000 0.236191
vt 0.772726 0.236191
vt 0.954545 0.236191
vt 0.227273 0.236191
vt 0.409090 0.236191
vt 0.590909 0.236191
vt 0.818181 0.314921
vt 0.727272 0.314921
vt 0.772726 0.393651
vt 1.000000 0.314921
vt 0.909091 0.314921
vt 0.954545 0.393651
vt 0.272727 0.314921
vt 0.181818 0.314921
vt 0.227273 0.393651
vt 0.454545 0.314921
vt 0.363636 0.314921
vt 0.409090 0.393651
vt 0.636363 0.314921
vt 0.545454 0.314921
vt 0.590909 0.393651
vt 0.500000 0.393651
vt 0.545454 0.472382
vt 0.318182 0.393651
vt 0.363636 0.472382
vt 0.136363 0.393651
vt 0.181818 0.472382
vt 0.090909 0.314921
vt 0.863635 0.393651
vt 0.909090 0.472382
vt 0.681818 0.393651
vt 0.727272 0.472382
vt 0.045454 0.236191
vt 0.000000 0.157461
vt 0.590909 0.078731
vt 0.636363 0.000000
vn 0.0223 -0.9494 0.3133
vn 0.5556 -0.7885 0.2638
vn -0.0939 -0.9561 0.2776
vn -0.0711 -0.9612 -0.2665
vn -0.0185 -0.9589 -0.2831
vn 0.8813 -0.3746 0.2881
vn 0.0036 -0.4409 0.8975
vn -0.8536 -0.3919 0.3431
vn -0.5553 -0.4006 -0.7288
vn 0.5393 -0.4028 -0.7395
vn 0.5842 0.0274 0.8111
vn -0.5756 -0.0526 0.8160
vn -0.9661 -0.0119 -0.2577
vn -0.3013 -0.2044 -0.9314
vn 0.7812 -0.2293 -0.5807
vn 0.4028 0.6326 0.6615
vn -0.5609 0.6729 0.4824
vn -0.5014 0.8106 0.3026
vn 0.0639 0.8688 -0.4910
vn 0.7629 0.5208 0.3832
vn 0.3469 0.8881 -0.3015
vn 0.1474 0.9758 -0.1618
vn 0.0787 0.8701 -0.4866
vn -0.1282 0.8781 -0.4610
vn -0.0895 0.9330 -0.3487
vn -0.1518 0.9227 -0.3543
vn -0.4645 0.8855 0.0127
vn -0.6692 0.7429 0.0128
vn -0.7328 0.6500 0.2013
vn -0.2690 0.9149 0.3010
vn -0.3282 0.8036 0.4964
vn 0.0225 0.6243 0.7809
vn 0.3597 0.9272 0.1042
vn 0.5258 0.8185 0.2313
vn 0.8507 0.5229 -0.0544
vn 0.9662 0.0893 0.2418
vn 0.7710 -0.2787 -0.5727
vn 0.5212 -0.0744 -0.8502
vn -0.0610 0.0309 -0.9977
vn -0.3077 -0.1048 -0.9457
vn -0.4042 -0.0582 -0.9128
vn -0.9529 0.0763 0.2936
vn -0.8906 0.3867 -0.2395
vn -0.7632 0.6135 0.2030
vn -0.6456 0.1537 0.7481
vn -0.5738 0.1078 0.8118
vn -0.0096 0.4460 0.8950
vn 0.6202 0.0730 0.7810
vn 0.5811 0.0964 0.8081
vn 0.8242 0.5619 -0.0713
vn 0.3018 -0.1981 -0.9326
vn 0.2970 -0.2523 -0.9209
vn 0.0141 -0.3913 -0.9201
vn -0.7458 -0.3713 -0.5532
vn -0.7733 -0.2682 -0.5745
vn -0.7511 -0.2419 -0.6142
vn -0.5703 0.2067 0.7950
vn -0.5837 -0.0727 0.8087
vn -0.5936 -0.0665 0.8020
vn 0.5764 0.0388 0.8162
vn 0.5723 -0.1149 0.8120
vn 0.4732 -0.0539 0.8793
vn 0.8529 0.4688 -0.2299
vn 0.9636 -0.0746 -0.2567
vn 0.7847 -0.2346 -0.5737
vn 0.5273 -0.4857 -0.6971
vn 0.1173 -0.6923 -0.7121
vn -0.0248 -0.5958 -0.8027
vn -0.4597 -0.5939 -0.6602
vn -0.5023 -0.6598 -0.5589
vn -0.5887 -0.6287 -0.5081
vn -0.6529 -0.7253 0.2184
vn -0.3192 -0.8470 0.4250
vn -0.2757 -0.7739 0.5702
vn 0.6340 -0.5041 -0.5865
vn 0.4667 -0.8836 0.0376
vn 0.2313 -0.9722 0.0375
vn -0.0569 -0.7691 0.6366
vn 0.0915 -0.8487 0.5209
vn 0.3472 -0.7656 0.5416
usemtl None
s off
f 1/1/1 14/2/1 13/3/1
f 2/4/2 14/5/2 16/6/2
f 1/7/3 13/8/3 18/9/3
f 1/10/4 18/11/4 20/12/4
f 1/13/5 20/14/5 17/15/5
f 2/4/6 16/6/6 23/16/6
f 3/17/7 15/18/7 25/19/7
f 4/20/8 19/21/8 27/22/8
f 5/23/9 21/24/9 29/25/9
f 6/26/10 22/27/10 31/28/10
f 2/4/11 23/16/11 26/29/11
f 3/17/12 25/19/12 28/30/12
f 4/20/13 27/22/13 30/31/13
f 5/23/14 29/25/14 32/32/14
f 6/26/15 31/28/15 24/33/15
f 7/34/16 33/35/16 38/36/16
f 8/37/17 34/38/17 40/39/17
f 9/40/18 35/41/18 41/42/18
f 10/43/19 36/44/19 42/45/19
f 11/46/20 37/47/20 39/48/20
f 39/48/21 42/49/21 12/50/21
f 39/48/22 37/47/22 42/49/22
f 37/47/23 10/43/23 42/49/23
f 42/45/24 41/51/24 12/52/24
f 42/45/25 36/44/25 41/51/25
f 36/44/26 9/40/26 41/51/26
f 41/42/27 40/53/27 12/54/27
f 41/42/28 35/41/28 40/53/28
f 35/41/29 8/55/29 40/53/29
f 40/39/30 38/56/30 12/57/30
f 40/39/31 34/38/31 38/56/31
f 34/38/32 7/34/32 38/56/32
f 38/36/33 39/58/33 12/59/33
f 38/36/34 33/35/34 39/58/34
f 33/35/35 11/46/35 39/58/35
f 24/33/36 37/47/36 11/46/36
f 24/33/37 31/28/37 37/47/37
f 31/28/38 10/43/38 37/47/38
f 32/32/39 36/44/39 10/43/39
f 32/32/40 29/25/40 36/44/40
f 29/25/41 9/40/41 36/44/41
f 30/31/42 35/41/42 9/40/42
f 30/31/43 27/22/43 35/41/43
f 27/22/44 8/55/44 35/41/44
f 28/30/45 34/38/45 8/37/45
f 28/30/46 25/19/46 34/38/46
f 25/19/47 7/34/47 34/38/47
f 26/29/48 33/35/48 7/34/48
f 26/29/49 23/16/49 33/35/49
f 23/16/50 11/46/50 33/35/50
f 31/28/51 32/32/51 10/43/51
f 31/28/52 22/27/52 32/32/52
f 22/27/53 5/23/53 32/32/53
f 29/25/54 30/31/54 9/40/54
f 29/25/55 21/24/55 30/31/55
f 21/24/56 4/20/56 30/31/56
f 27/22/57 28/60/57 8/55/57
f 27/22/58 19/21/58 28/60/58
f 19/21/59 3/61/59 28/60/59
f 25/19/60 26/29/60 7/34/60
f 25/19/61 15/18/61 26/29/61
f 15/18/62 2/4/62 26/29/62
f 23/16/63 24/33/63 11/46/63
f 23/16/64 16/6/64 24/33/64
f 16/6/65 6/26/65 24/33/65
f 17/15/66 22/27/66 6/26/66
f 17/15/67 20/14/67 22/27/67
f 20/14/68 5/23/68 22/27/68
f 20/12/69 21/24/69 5/23/69
f 20/12/70 18/11/70 21/24/70
f 18/11/71 4/20/71 21/24/71
f 18/9/72 19/21/72 4/20/72
f 18/9/73 13/8/73 19/21/73
f 13/8/74 3/61/74 19/21/74
f 16/6/75 17/62/75 6/26/75
f 16/6/76 14/5/76 17/62/76
f 14/5/77 1/63/77 17/62/77
f 13/3/78 15/18/78 3/17/78
f 13/3/79 14/2/79 15/18/79
f 14/2/80 2/4/80 15/18/80
